<?xml version="1.0" encoding="UTF-8"?>
<svg id="Capa_2" data-name="Capa 2" xmlns="http://www.w3.org/2000/svg" viewBox="0 0 1791.64 440.51">
  <defs>
    <style>
      .cls-1 {
        fill: #00c656;
      }

      .cls-2 {
        fill: #0c2340;
      }
    </style>
  </defs>
  <g id="cover">
    <g>
      <g>
        <path class="cls-1" d="m85.63,409.15c-4.43,18.8-20.29,31.36-37.67,31.36-3.14,0-6.32-.39-9.5-1.26-20.77-5.57-33.39-28.18-28.18-50.37,4.43-18.8,20.29-31.36,37.67-31.36,3.13,0,6.3.41,9.48,1.26,20.77,5.57,33.41,28.18,28.19,50.37Z"/>
        <path class="cls-2" d="m298.74,85.37l-189.72,95.2c-5.75,2.88-11.83,4.28-17.78,4.28-15.75,0-30.85-9.54-37.98-25.78-9.85-22.41-.84-49.08,20.13-59.58L263.11,4.25c5.77-2.88,11.83-4.25,17.79-4.25,15.75,0,30.83,9.52,37.98,25.77,9.85,22.39.83,49.09-20.14,59.6Z"/>
        <path class="cls-2" d="m315.47,322.85l-147.79,73.94c-5.75,2.87-11.8,4.23-17.75,4.23-15.77,0-30.88-9.56-38-25.83-9.82-22.41-.77-49.08,20.19-59.57l147.79-73.91c5.75-2.9,11.8-4.25,17.76-4.25,15.77,0,30.86,9.54,38,25.82,9.8,22.41.78,49.08-20.2,59.57Z"/>
        <path class="cls-2" d="m238.95,237.73l-179.24,89.61c-5.74,2.87-11.8,4.23-17.73,4.23-15.78,0-30.89-9.56-38.01-25.83-9.82-22.41-.77-49.08,20.22-59.57l179.24-89.6c5.74-2.88,11.78-4.25,17.73-4.25,15.77,0,30.88,9.56,38.01,25.83,9.8,22.41.75,49.08-20.22,59.57Z"/>
      </g>
      <g id="emaya">
        <g id="m_const" data-name="m const">
          <polygon class="cls-2" points="956.44 402.03 926.46 402.03 909.17 211.9 833.84 390.39 809.41 390.39 734.08 211.9 716.79 402.03 686.81 402.03 708.41 164.44 746.78 164.44 821.62 341.84 896.47 164.44 934.84 164.44 956.44 402.03"/>
        </g>
        <g id="e">
          <polygon class="cls-2" points="579.34 377.6 579.34 401.05 434.01 401.05 434.01 163.46 577.56 163.46 577.56 186.92 463.86 186.92 463.86 267.79 575.54 267.79 575.54 291.27 463.86 291.27 463.86 377.6 579.34 377.6"/>
        </g>
        <path class="cls-2" d="m1194.26,164.44h-18.77l-109.15,237.59h33.22l37.83-82.35h94.96l37.83,82.35h33.22l-109.15-237.59Zm-46.05,131.76l36.67-79.84,36.67,79.84h-73.34Z"/>
        <polygon class="cls-2" points="1528.28 164.44 1492.64 164.44 1428.77 268.91 1364.89 164.44 1329.25 164.44 1411.46 298.91 1411.46 402.03 1445.83 402.03 1445.83 299.28 1528.28 164.44"/>
        <path class="cls-2" d="m1682.49,164.44h-18.77l-109.15,237.59h33.22l37.83-82.35h94.96l37.83,82.35h33.22l-109.15-237.59Zm-46.05,131.76l36.67-79.84,36.67,79.84h-73.34Z"/>
      </g>
    </g>
  </g>
</svg>